<svg width="50" height="30" viewBox="0 0 50 30" fill="none" xmlns="http://www.w3.org/2000/svg">
<path fill-rule="evenodd" clip-rule="evenodd" d="M6 0H20.0933C19.953 2.19833 21.6845 4.25 24.0903 4.25H25.0756C27.4814 4.25 29.2128 2.19833 29.0726 0H44C47.3137 0 50 2.68629 50 6V24C50 27.3137 47.3137 30 44 30H29.073C29.2133 27.8017 27.4818 25.75 25.076 25.75H24.0907C21.6849 25.75 19.9534 27.8017 20.0937 30H6C2.68629 30 0 27.3137 0 24V6C0 2.68629 2.68629 0 6 0Z" fill="#FF6A2C" fill-opacity="0.08"/>
</svg>
