<svg
    width="12"
    height="12"
    viewBox="0 0 12 12"
    fill="none"
    xmlns="http://www.w3.org/2000/svg"
>
    <path
        fill-rule="evenodd"
        clip-rule="evenodd"
        d="M5.77339 0.166656C2.67688 0.166656 0.166656 2.62144 0.166656 5.64956C0.166656 8.67768 2.67688 11.1325 5.77339 11.1325C7.09775 11.1325 8.31486 10.6834 9.27421 9.93256L11.0965 11.71L11.145 11.7508C11.3142 11.8733 11.5541 11.8593 11.7072 11.7092C11.8756 11.5441 11.8752 11.2767 11.7064 11.1121L9.90549 9.35552C10.8212 8.37964 11.3801 7.07843 11.3801 5.64956C11.3801 2.62144 8.8699 0.166656 5.77339 0.166656ZM5.77333 1.0111C8.39289 1.0111 10.5165 3.08778 10.5165 5.64949C10.5165 8.2112 8.39289 10.2879 5.77333 10.2879C3.15376 10.2879 1.03018 8.2112 1.03018 5.64949C1.03018 3.08778 3.15376 1.0111 5.77333 1.0111Z"
        fill="#6C757D"
    />
</svg>